# xmcd CD database file generated by OrangeCD 6.3
#
# Track frame offsets:
#	150
#	13519
#	29088
#	43846
#	55844
#	66664
#	83630
#	97693
#	112141
#	126352
#	140485
#	160970
#	180475
#	197847
#	216670
#	232118
#	252758
#	267888
#	282867
#	302255
#
# Disc length: 4276 seconds
#
# Revision: 0
# Processed by: cddbd v1.5.2PL0 Copyright (c) Steve Scherf et al.
# Submitted via: OrangeCD 6.3
#
DISCID=2810b214
DTITLE=Dolly Parton - Here You Come Again (1982) - Rainbow (1987)
DYEAR=1900
DGENRE=Country
TTITLE0=Here You Come Again
TTITLE1=Baby Come Out Tonight
TTITLE2=It's All Wrong,But It's All Right
TTITLE3=Me And Little Andy
TTITLE4=Lovin' You
TTITLE5=Cowgirl and The Dandy
TTITLE6=Two Doors Down
TTITLE7=God's Coloring Book
TTITLE8=As Soon As I Touched Him
TTITLE9=Sweet Music Man
TTITLE10=The River Unbroken
TTITLE11=I Know You By Heart
TTITLE12=Dump The Dude
TTITLE13=Red Hot Screaming Love
TTITLE14=Make Love Work
TTITLE15=Everyday Hero
TTITLE16=Two Lovers
TTITLE17=Could I Have Your Autograph
TTITLE18=Savin' It For You
TTITLE19=More Than I Can Say
EXTD=
EXTT0=
EXTT1=
EXTT2=
EXTT3=
EXTT4=
EXTT5=
EXTT6=
EXTT7=
EXTT8=
EXTT9=
EXTT10=
EXTT11=
EXTT12=
EXTT13=
EXTT14=
EXTT15=
EXTT16=
EXTT17=
EXTT18=
EXTT19=
PLAYORDER=
